

<svg aria-hidden="true" style="position:absolute;width:0;height:0;overflow:hidden" xmlns="http://www.w3.org/2000/svg">
  <defs>
  <!-- header icons -->
    <symbol id="icon-linkedin" viewBox="0 0 32 32">
      <path d="M31.992 32H32V20.262c0-5.741-1.235-10.163-7.947-10.163-3.227 0-5.392 1.77-6.277 3.45h-.093v-2.914h-6.365v21.363h6.627V21.42c0-2.786.528-5.48 3.978-5.48 3.398 0 3.45 3.179 3.45 5.658V32h6.619zM.528 10.635h6.635V32H.528V10.635zM3.843 0A3.843 3.843 0 0 0 0 3.843c0 2.12 1.722 3.878 3.843 3.878 2.12 0 3.842-1.757 3.842-3.878S5.965.002 3.844 0z"/>
    </symbol>
    <symbol id="icon-facebook" viewBox="0 0 32 32">
      <path d="M21.328 5.312h2.923V.224A36.478 36.478 0 0 0 20.144 0h-.157.008c-4.213 0-7.099 2.65-7.099 7.52V12H8.25v5.688h4.646V32h5.699V17.69h4.459l.709-5.688h-5.17V8.08c0-1.643.443-2.768 2.734-2.768z"/>
    </symbol>
    <symbol id="icon-twitter" viewBox="0 0 32 32">
      <path d="M32 6.078c-1.1.493-2.376.857-3.713 1.028l-.068.007a6.556 6.556 0 0 0 2.873-3.579l.013-.046a12.88 12.88 0 0 1-4.076 1.573l-.084.014A6.558 6.558 0 0 0 15.6 9.557v.004c0 .52.043 1.021.152 1.496-5.454-.266-10.28-2.88-13.522-6.861a6.524 6.524 0 0 0-.902 3.313v.001a6.57 6.57 0 0 0 2.914 5.451 6.453 6.453 0 0 1-2.994-.823l.033.017v.072a6.592 6.592 0 0 0 5.213 6.44l.043.008a6.403 6.403 0 0 1-1.662.215h-.061.003c-.419 0-.843-.024-1.242-.112.85 2.598 3.261 4.509 6.13 4.57a13.093 13.093 0 0 1-8.122 2.8H1.57h.001-.062c-.531 0-1.055-.034-1.569-.099l.061.006c2.826 1.846 6.287 2.944 10.004 2.944h.063-.003c12.072 0 18.672-10 18.672-18.669 0-.288-.01-.57-.024-.848a13.203 13.203 0 0 0 3.258-3.355l.03-.047z"/>
    </symbol>
    <symbol id="icon-instagram" viewBox="0 0 32 32">
      <path d="M31.968 9.408c-.074-1.701-.349-2.869-.742-3.882a7.839 7.839 0 0 0-1.85-2.837l-.001-.001A7.906 7.906 0 0 0 26.597.861l-.054-.018C25.524.449 24.362.176 22.661.101 20.949.019 20.405 0 16.059 0c-4.344 0-4.888.019-6.595.094-1.699.074-2.869.349-3.88.742a7.847 7.847 0 0 0-2.839 1.85l-.001.001A7.9 7.9 0 0 0 .919 5.465l-.018.054C.506 6.538.232 7.7.157 9.401c-.082 1.712-.101 2.256-.101 6.602 0 4.344.019 4.888.094 6.595.075 1.701.35 2.869.744 3.882a7.915 7.915 0 0 0 1.849 2.837l.001.001c.8.813 1.77 1.443 2.832 1.843 1.019.395 2.182.67 3.882.744 1.707.075 2.251.094 6.595.094 4.346 0 4.89-.019 6.595-.094 1.701-.074 2.869-.349 3.882-.742a8.237 8.237 0 0 0 4.664-4.628l.019-.055c.394-1.019.669-2.182.744-3.882.075-1.707.093-2.251.093-6.595s-.006-4.888-.08-6.595zm-2.88 13.066c-.07 1.563-.333 2.406-.55 2.97a5.341 5.341 0 0 1-3.004 3.024l-.036.012c-.56.219-1.411.482-2.968.55-1.688.075-2.194.094-6.464.094-4.269 0-4.782-.019-6.464-.094-1.563-.069-2.406-.331-2.97-.55a4.953 4.953 0 0 1-1.836-1.192l-.001-.001a4.978 4.978 0 0 1-1.184-1.803L3.6 25.45c-.218-.563-.48-1.413-.549-2.97-.075-1.688-.094-2.195-.094-6.464 0-4.27.019-4.784.094-6.464.069-1.563.331-2.406.549-2.97a4.897 4.897 0 0 1 1.198-1.837l.002-.002a4.972 4.972 0 0 1 1.806-1.182l.034-.011c.56-.219 1.411-.48 2.968-.55 1.688-.074 2.195-.093 6.464-.093 4.275 0 4.782.019 6.464.093 1.563.069 2.406.331 2.97.55a4.91 4.91 0 0 1 1.837 1.194c.531.52.938 1.144 1.195 1.84.218.56.48 1.411.549 2.968.075 1.688.094 2.194.094 6.464 0 4.269-.019 4.768-.094 6.458z"/>
      <path d="M16.059 7.782a8.223 8.223 0 0 0-8.219 8.221 8.223 8.223 0 0 0 16.442.008v-.009a8.223 8.223 0 0 0-8.221-8.221zm0 13.552a5.333 5.333 0 0 1 .001-10.666h.001a5.334 5.334 0 1 1 0 10.668zM26.525 7.458a1.92 1.92 0 0 1-3.84 0 1.92 1.92 0 0 1 3.84 0z"/>
    </symbol>
    <symbol id="icon-antenna" viewBox="0 0 32 32">
      <path fill="#212121" style="fill:var(--color3, #212121)" d="m30.773 22.098-8.443-8.505.937-4.616c.225.09.485.144.758.146h.033a2.16 2.16 0 1 0-2.029-1.42l-.005-.015-4.96.606L8.973.161a.53.53 0 0 0-.376-.16.536.536 0 0 0-.373.155L6.712 1.66a.535.535 0 0 0 0 .754l.814.825C6.383 5.301 5.71 7.761 5.71 10.378c0 4.106 1.656 7.824 4.336 10.525l-.001-.001a.49.49 0 0 0 .146.097 2.986 2.986 0 0 0-.052.546v6.188h-6.4a2.669 2.669 0 0 0-2.667 2.666v1.067c0 .295.239.534.534.534H26.14a.534.534 0 0 0 .533-.534v-1.067a2.67 2.67 0 0 0-2.666-2.666h-6.4v-2.742a14.784 14.784 0 0 0 10.166-1.502l-.077.039.818.823a.534.534 0 0 0 .376.16.536.536 0 0 0 .373-.155l1.512-1.504a.535.535 0 0 0 0-.754zM23.28 6.233a1.067 1.067 0 1 1 .752 1.822h-.004a1.066 1.066 0 0 1-.747-1.822h-.002zm-1.256 3.504-.598 2.946-1.175-1.183 1.774-1.763zm-.605-.902-1.92 1.909-1.486-1.493 3.406-.416zM24.004 28.8a1.6 1.6 0 0 1 1.6 1.6v.534H2.138V30.4a1.6 1.6 0 0 1 1.6-1.6h20.267zm-7.466-2.134v1.067h-5.334v-1.067h5.334zM11.204 25.6v-4.053c0-1.294 1.196-2.346 2.667-2.346s2.667 1.053 2.667 2.346V25.6h-5.334zm6.4-1.696v-2.357c0-1.882-1.675-3.413-3.733-3.413h-.058c-1.353 0-2.54.707-3.213 1.771l-.009.016a13.817 13.817 0 0 1-3.812-9.55c0-2.314.567-4.496 1.569-6.414l-.036.077 18.602 18.709c-1.823.947-3.979 1.502-6.266 1.502-1.079 0-2.128-.124-3.136-.357l.093.018zm11.289-.684L7.836 2.039l.754-.752 7.935 7.98c.004 0 .006.007.01.01l13.114 13.191-.757.752z"/>
      <path fill="#2196f3" style="fill:var(--color4, #2196f3)" d="M13.876 20.267h-.007a1.6 1.6 0 0 0-.003 3.2h.007a1.6 1.6 0 0 0 .002-3.2zm.373 1.978a.534.534 0 1 1-.378-.912.533.533 0 0 1 .374.911h.005z"/>
    </symbol>
    <symbol id="icon-astronaut" viewBox="0 0 32 32">
      <path fill="#2196f3" style="fill:var(--color4, #2196f3)" d="M31.974 4.524a.535.535 0 0 0-.427-.362h-.003l-1.911-.278-.855-1.731c-.179-.365-.777-.365-.956 0l-.855 1.731-1.911.278a.534.534 0 0 0-.296.91l1.383 1.348-.326 1.903a.532.532 0 0 0 .774.562l1.709-.899 1.709.899a.534.534 0 0 0 .773-.565v.003l-.326-1.903 1.383-1.348a.535.535 0 0 0 .134-.55l.001.004zm-2.463 1.327a.53.53 0 0 0-.153.472l.191 1.114-1-.526a.525.525 0 0 0-.501.001l.003-.001-1 .526.191-1.114a.53.53 0 0 0-.152-.472l-.811-.79 1.119-.162a.532.532 0 0 0 .402-.292l.5-1.013.5 1.013a.532.532 0 0 0 .402.292l1.119.162-.809.79zm-3.377 14.671h-1.067v1.067h1.067v-1.067zm0 2.134h-1.067v1.066h1.067v-1.066zm1.066-1.067h-1.067v1.067H27.2v-1.067zm-2.133 0H24v1.067h1.067v-1.067zm-2.667 4.8h-1.067v1.067H22.4v-1.067zm0 2.134h-1.067v1.067H22.4v-1.067zm1.067-1.067H22.4v1.067h1.067v-1.067zm-2.133 0h-1.067v1.067h1.067v-1.067zM16 24.256h-1.066v1.067H16v-1.067zm0 2.133h-1.066v1.067H16v-1.067zm1.067-1.067H16v1.067h1.067v-1.067zm-2.133 0h-1.067v1.067h1.067v-1.067zm-9.067-19.2H4.801v1.066h1.066V6.122zm0 2.134H4.801v1.066h1.066V8.256zm1.066-1.067H5.866v1.067h1.066V7.189zm-2.133 0H3.733v1.067H4.8V7.189z"/>
      <path fill="#212121" style="fill:var(--color3, #212121)" d="M24.715 14.16a1.774 1.774 0 0 0-1.179-.703l-.009-.001a1.769 1.769 0 0 0-1.344.355l.004-.003-1.253.96-1.898 1.417-1.358-.541c2.421-1.086 4.113-3.508 4.113-6.32 0-3.823-3.122-6.934-6.961-6.934S7.869 5.5 7.869 9.324c0 1.386.415 2.674 1.12 3.759l-2.768-.024c-.009 0-.016.005-.023.005a.511.511 0 0 0-.159.033l.004-.001c-.013.005-.026.007-.038.013-.006.003-.013.003-.019.006l-3.233 1.596-.001.001-1.893.91a.5.5 0 0 0-.065.036l.001-.001a1.782 1.782 0 0 0-.594 2.306l-.005-.01c.22.424.592.742 1.043.885l.013.003a1.772 1.772 0 0 0 1.388-.133l-.009.005 1.388-.738 2.264-1.169 1.357-.008-5.442 5.415-.001.001-1.339 1.333a1.643 1.643 0 0 0-.491 1.173v.005a1.668 1.668 0 0 0 1.667 1.664h.002a1.67 1.67 0 0 0 1.18-.485l1.314-1.309 1.741-1.3.901.897L4.07 27.28a1.643 1.643 0 0 0-.491 1.173v.004a1.662 1.662 0 0 0 1.666 1.664h.003a1.67 1.67 0 0 0 1.18-.485l4.488-4.472c.007-.006.016-.009.022-.016l5.166-5.658 3.471.494a.474.474 0 0 0 .262-.032c.017-.006.032-.015.049-.023.019-.01.039-.015.058-.027l3.213-2.133c.012-.008.018-.021.029-.03.013-.01.029-.014.041-.026l1.271-1.191c.348-.326.564-.787.564-1.3 0-.4-.132-.769-.355-1.066l.003.005zM2.13 17.77a.706.706 0 0 1-.564.05l.005.001a.717.717 0 0 1-.215-1.258l.002-.001 1.314-.632.316.924.133.389-.992.527zm3.497-1.828-1.548.8-.255-.746-.184-.537 2.027-1.001-.04 1.484zm15.1-6.62c0 .918-.219 1.785-.599 2.56l-4.181-1.899a1.865 1.865 0 0 0-.782-1.384l-.006-.004 1.464-4.861c2.377.757 4.104 2.975 4.104 5.588zm-11.789 0c0-3.235 2.644-5.867 5.894-5.867.253 0 .5.022.745.053l-1.432 4.753c-.019 0-.037-.006-.057-.006h-.001a1.872 1.872 0 0 0-1.872 1.867 1.873 1.873 0 0 0 1.872 1.867h.001c.695 0 1.295-.383 1.618-.944l3.863 1.755a5.891 5.891 0 0 1-4.737 2.39c-3.25 0-5.894-2.632-5.894-5.867zm5.957.8c0 .441-.362.8-.806.8h-.001a.804.804 0 0 1-.804-.8c0-.441.361-.8.806-.8s.806.359.806.8zM2.464 25.146a.606.606 0 0 1-.855.001.591.591 0 0 1 0-.844l.962-.959.852.848-.959.954zm3.214 3.734a.606.606 0 0 1-.855.001.591.591 0 0 1 0-.844l.963-.959.852.848-.96.955zm3.482-3.469-.001.001-1.765 1.76-.852-.848 1.765-1.757a.527.527 0 0 0 .09-.136c.007-.014.02-.026.026-.04.016-.041.019-.085.026-.128.003-.025.014-.048.014-.073 0-.035-.013-.07-.02-.105-.006-.032-.006-.064-.019-.096a.536.536 0 0 0-.092-.138c-.01-.012-.014-.026-.025-.038h-.001l-.001-.002-1.607-1.6c-.017-.017-.039-.024-.058-.038a.491.491 0 0 0-.084-.056l-.003-.001a.527.527 0 0 0-.09-.031l-.003-.001a.502.502 0 0 0-.101-.02h-.025a.603.603 0 0 0-.075.005h.003c-.036.005-.069.009-.104.021s-.064.027-.094.045c-.02.011-.043.015-.061.029l-1.774 1.324-.901-.897 2.399-2.386 4.36 4.289-.928.919zm6.819-7.017c-.016-.002-.03.004-.046.003l-.027-.001a.562.562 0 0 0-.092.008h.003a.484.484 0 0 0-.187.07l.002-.001a.492.492 0 0 0-.083.061c-.013.011-.028.016-.04.029l-4.698 5.146-4.328-4.256 2.833-2.818a.535.535 0 0 0-.378-.911h-.002l-2.219.013.028-1.607 3.104.027a6.928 6.928 0 0 0 4.978 2.101h.003c.438 0 .864-.046 1.28-.122.04.032.08.064.129.085l2.41.96.152.758.178.886-3.003-.427zm4.041.178-.313-1.558 1.446-1.08.946 1.257-2.08 1.381zm3.753-2.831-.837.785-.931-1.236.831-.637a.735.735 0 0 1 .543-.143.718.718 0 0 1 .621.71.71.71 0 0 1-.226.521z"/>
      <path fill="#212121" style="fill:var(--color3, #212121)" d="m13.602 18.544-2.143-2.134a.53.53 0 0 0-.752 0l-2.143 2.133a.535.535 0 0 0 0 .756l2.142 2.134a.53.53 0 0 0 .752 0l2.143-2.134a.532.532 0 0 0 0-.756zm-2.519 1.759-1.387-1.381 1.386-1.381 1.387 1.381-1.387 1.381zm6.081-15.232-.258 1.036c.071.018 1.738.452 1.738 2.149h1.067c0-2.017-1.666-2.965-2.547-3.184zm2.547 4.251h-1.067v1.066h1.067V9.322z"/>
    </symbol>
    <symbol id="icon-clock" viewBox="0 0 32 32">
      <path fill="#212121" style="fill:var(--color3, #212121)" d="M31.296 15.301C31.295 6.849 24.441-.002 15.988 0S.685 6.855.687 15.308c.002 6.788 4.422 12.543 10.541 14.545l.108.031a.667.667 0 0 0 .529-.065.636.636 0 0 0 .283-.357l3.865-12.25a1.913 1.913 0 1 0-.852-3.63l.011-.005-5.106-5.107a.638.638 0 0 0-.902.902l5.103 5.109a1.847 1.847 0 0 0-.191.826c0 .602.283 1.137.723 1.48l.004.003-3.682 11.673C3.843 25.782.117 17.709 2.797 10.431S13.551-.573 20.829 2.108c7.278 2.681 11.004 10.754 8.323 18.032-1.345 3.581-4.003 6.406-7.374 7.938l-.088.036-.398-1.874a.639.639 0 0 0-1.05-.343l.001-.001-3.837 3.426a.637.637 0 0 0 .227 1.083l.005.001 4.899 1.563a.637.637 0 0 0 .818-.744l.001.004-.391-1.839c5.528-2.374 9.329-7.772 9.329-14.057v-.034.002zm-15.304-.637a.638.638 0 0 1 0 1.276.638.638 0 0 1 0-1.276zm2.1 14.864 2.184-1.948.603 2.84-2.787-.892z"/>
      <path fill="#2196f3" style="fill:var(--color4, #2196f3)" d="M15.354 3.185V4.46a.638.638 0 0 0 1.276 0V3.185a.638.638 0 1 0-1.276 0zM3.876 14.664a.638.638 0 0 0 0 1.276h1.275a.638.638 0 0 0 0-1.276H3.876zm24.232 1.275a.638.638 0 0 0 0-1.276h-1.275a.638.638 0 0 0 0 1.276h1.275z"/>
    </symbol>
    <symbol id="icon-diagram" viewBox="0 0 32 32">
      <path fill="#2196f3" style="fill:var(--color4, #2196f3)" d="M14.926 14.965h1.066v4.798h-1.066v-4.798zm4.264 2.132h1.066v2.665H19.19v-2.665zm-8.529 1.599h1.066v1.066h-1.066v-1.066zm-3.198-.533h1.066v1.599H7.463v-1.599z"/>
      <path fill="#212121" style="fill:var(--color3, #212121)" d="M1.599 28.291h25.586a1.6 1.6 0 0 0 1.599-1.599V24.56a1.6 1.6 0 0 0-1.599-1.599h-.533V9.667l3.028-2.868a1.608 1.608 0 1 0-.742-.752l-.004-.01-2.281 2.162v-1.23a1.6 1.6 0 0 0-1.599-1.599H3.731a1.6 1.6 0 0 0-1.599 1.599v15.992h-.533A1.6 1.6 0 0 0 0 24.56v2.132a1.6 1.6 0 0 0 1.599 1.599zM30.384 4.837a.533.533 0 0 1 0 1.066.533.533 0 0 1 0-1.066zM3.198 6.969c0-.294.239-.533.533-.533h21.323c.294 0 .533.239.533.533v2.239l-1.066 1.013V8.036a.534.534 0 0 0-.534-.534H4.798a.534.534 0 0 0-.534.533v13.327c0 .294.239.533.534.533h19.189a.534.534 0 0 0 .534-.533v-9.675l1.066-1.01V22.96H3.198V6.969zm4.798 6.93h-.005a1.6 1.6 0 1 0 1.112 2.748l1.853.93a.535.535 0 0 0 .636-.122l3.939-4.432 3.872 2.902a.534.534 0 0 0 .686-.039l3.365-3.188v8.131H5.331V8.568h18.123v2.661l-3.771 3.572-3.904-2.927a.534.534 0 0 0-.718.071v.001l-3.993 4.493-1.493-.746c.011-.064.017-.128.02-.193a1.6 1.6 0 0 0-1.599-1.599zm.533 1.599a.533.533 0 0 1-1.066 0 .533.533 0 0 1 1.066 0zm3.198 8.528h5.33v.533a.533.533 0 0 1-.533.533h-4.265a.533.533 0 0 1-.533-.533v-.533zm-10.66.534c0-.294.238-.533.533-.533h9.062v.533a1.6 1.6 0 0 0 1.599 1.599h4.265a1.6 1.6 0 0 0 1.599-1.599v-.533h9.062c.294 0 .533.239.533.533v2.132a.533.533 0 0 1-.533.533H1.601a.533.533 0 0 1-.533-.533V24.56z"/>
    </symbol>
    <symbol id="icon-brand" viewBox="0 0 106 60">
      <path d="M26.757 44.735c.244.276.373.622.367.977a1.43 1.43 0 0 1-.131.676 1.558 1.558 0 0 1-.438.558 2.627 2.627 0 0 1-1.651.45H22v-6.19h2.844a2.593 2.593 0 0 1 1.576.41c.184.142.33.32.425.52.096.202.139.42.127.64.016.34-.1.677-.33.946-.221.246-.526.416-.866.484.385.064.733.252.98.53Zm-3.406-.934h1.216c.276.018.55-.055.773-.206a.738.738 0 0 0 .207-.275.68.68 0 0 0 .054-.33.702.702 0 0 0-.055-.329.759.759 0 0 0-.203-.276 1.255 1.255 0 0 0-.796-.209H23.35v1.625Zm2.108 2.374a.777.777 0 0 0 .224-.284.712.712 0 0 0 .063-.345.722.722 0 0 0-.066-.35.788.788 0 0 0-.228-.285 1.338 1.338 0 0 0-.826-.224h-1.275v1.703h1.292c.29.015.578-.06.816-.215ZM32.57 47.397l-1.581-2.42h-.595v2.42h-1.361v-6.191h2.577a2.699 2.699 0 0 1 1.793.526c.36.336.578.779.613 1.248a1.86 1.86 0 0 1-.421 1.314 2.148 2.148 0 0 1-1.229.629l1.685 2.474h-1.48Zm-2.176-3.264h1.113c.773 0 1.16-.312 1.16-.937a.852.852 0 0 0-.063-.375.917.917 0 0 0-.221-.321 1.282 1.282 0 0 0-.876-.251h-1.126l.013 1.884ZM40.01 46.15h-2.712l-.479 1.247h-1.427l2.49-6.122h1.543l2.481 6.122H40.48l-.469-1.246Zm-.363-.937-.991-2.613-.991 2.613h1.982ZM49.322 47.397h-1.35l-3.03-4.21v4.21h-1.348v-6.192h1.348l3.03 4.235v-4.235h1.35v6.192ZM57.033 45.915c-.28.467-.705.848-1.223 1.092a4.288 4.288 0 0 1-1.9.39h-2.404v-6.191h2.405a4.376 4.376 0 0 1 1.9.38c.517.24.943.616 1.222 1.08.278.504.423 1.06.423 1.625 0 .564-.145 1.12-.423 1.624Zm-1.546-.148a2.16 2.16 0 0 0 .597-1.478c0-.542-.212-1.066-.597-1.477a2.488 2.488 0 0 0-1.692-.527h-.938v4.008h.938a2.49 2.49 0 0 0 1.692-.526ZM40.856 6.767s17.438 6.028 17.069 14.751v14.754s-17.426-6.03-17.063-14.754l-.006-14.751ZM73.46 32.818c3.294-2.075 7.103-3.36 11.08-3.738v-4.62c-4.582 1.618-8.47 4.55-11.08 8.358Z" />
  <path d="M71.482 34.21c2.695-4.97 7.368-8.805 13.058-10.717V10.185s-24.835 8.587-24.31 21.009V52.2s1.107-.384 2.848-1.104c0-.671 0-1.349.08-2.03.513-5.766 3.507-11.11 8.324-14.857Z" />
  <path d="M69.12 42.013c.13-1.457.421-2.898.868-4.301-2.998 3.235-4.815 7.25-5.192 11.479-.037.399-.057.798-.067 1.21a74.756 74.756 0 0 0 4.777-2.305c-.44-2.001-.57-4.049-.386-6.083ZM70.107 42.089a19.058 19.058 0 0 0 .308 5.508c6.785-3.718 14.41-9.462 14.115-16.403v-.605c-4.848.497-9.383 2.437-12.91 5.523a19.256 19.256 0 0 0-1.513 5.977Z" />
    </symbol>
    <symbol id="icon-company" viewBox="0 0 106 60">
      <path d="M36.406 49.101c.016 0 .032.004.046.01a.122.122 0 0 1 .039.024l.218.208c-.17.169-.379.304-.614.396a2.39 2.39 0 0 1-.87.142c-.28.005-.558-.04-.817-.133a1.794 1.794 0 0 1-.616-.374 1.674 1.674 0 0 1-.398-.578 1.926 1.926 0 0 1-.14-.742 1.725 1.725 0 0 1 .572-1.322c.187-.163.41-.291.655-.377.269-.09.555-.135.843-.132a2.27 2.27 0 0 1 .782.12c.216.082.415.195.587.335l-.183.222a.177.177 0 0 1-.046.04.125.125 0 0 1-.074.017.177.177 0 0 1-.08-.023l-.097-.06-.137-.076a1.555 1.555 0 0 0-.43-.132 1.892 1.892 0 0 0-.325-.024 1.759 1.759 0 0 0-.605.1c-.18.063-.341.158-.474.28-.136.128-.241.28-.309.445a1.497 1.497 0 0 0-.111.587c-.004.203.034.405.111.597a1.3 1.3 0 0 0 .303.443c.125.12.28.215.453.275.178.064.369.096.561.095.111.001.223-.005.333-.019a1.316 1.316 0 0 0 .72-.306.171.171 0 0 1 .103-.038ZM42.704 48.054a1.81 1.81 0 0 1-.147.737 1.593 1.593 0 0 1-.41.572 1.889 1.889 0 0 1-.645.375 2.655 2.655 0 0 1-1.658 0 1.91 1.91 0 0 1-.64-.377 1.676 1.676 0 0 1-.415-.578 1.922 1.922 0 0 1 0-1.475c.093-.216.234-.413.415-.58.182-.159.4-.282.64-.363a2.61 2.61 0 0 1 1.658 0c.242.085.461.213.643.376.18.165.32.36.412.571.101.238.151.489.147.742Zm-.572 0a1.566 1.566 0 0 0-.104-.593 1.22 1.22 0 0 0-.752-.722 1.918 1.918 0 0 0-1.205 0 1.297 1.297 0 0 0-.461.28 1.191 1.191 0 0 0-.294.443 1.738 1.738 0 0 0 0 1.184 1.209 1.209 0 0 0 .755.72c.388.127.816.127 1.205 0 .175-.061.333-.156.46-.277.131-.129.23-.28.292-.443.074-.19.108-.391.104-.592ZM47.001 48.675l.058.132c.021-.047.04-.09.062-.132.021-.045.045-.088.071-.13l1.393-2.201c.028-.038.052-.062.08-.069a.373.373 0 0 1 .114-.012h.412v3.58h-.488V47.1a.974.974 0 0 1 0-.124L47.3 49.208a.203.203 0 0 1-.082.081.246.246 0 0 1-.12.03h-.079a.243.243 0 0 1-.12-.03.201.201 0 0 1-.081-.081l-1.443-2.246V49.835h-.471v-3.572h.411a.374.374 0 0 1 .115.012c.034.015.06.039.076.069l1.423 2.203c.028.04.052.083.071.128ZM52.244 48.497v1.34H51.7v-3.574h1.216c.23-.004.459.023.679.078.176.044.34.12.48.223a.922.922 0 0 1 .273.35c.064.146.095.302.092.458a.992.992 0 0 1-.395.815c-.14.107-.304.188-.483.236a2.3 2.3 0 0 1-.657.083l-.66-.01Zm0-.384h.66c.143.002.286-.017.423-.054a.925.925 0 0 0 .305-.154.687.687 0 0 0 .25-.538.605.605 0 0 0-.054-.291.69.69 0 0 0-.19-.244 1.172 1.172 0 0 0-.734-.192h-.66v1.473ZM59.573 49.842h-.43a.205.205 0 0 1-.12-.033.224.224 0 0 1-.072-.083l-.37-.864h-1.863l-.384.864a.196.196 0 0 1-.068.08.205.205 0 0 1-.123.036h-.43l1.635-3.58h.567l1.658 3.58Zm-2.7-1.329h1.539l-.65-1.457c-.049-.11-.09-.222-.122-.336l-.063.187a1.69 1.69 0 0 1-.06.152l-.643 1.454ZM61.929 46.28c.032.015.06.037.082.063l2.385 2.699v-2.779h.488v3.58h-.272a.265.265 0 0 1-.112-.022.298.298 0 0 1-.087-.066l-2.383-2.696a.974.974 0 0 1 0 .123v2.66h-.488v-3.58h.289c.033 0 .067.006.098.017ZM68.903 48.419v1.421h-.545V48.42l-1.508-2.156h.488a.196.196 0 0 1 .117.03c.03.024.055.051.074.081l.943 1.391a1.419 1.419 0 0 1 .166.317l.072-.154c.026-.056.057-.11.092-.163l.93-1.4a.379.379 0 0 1 .07-.076.182.182 0 0 1 .118-.035h.494l-1.51 2.165ZM46.731 40.256c.238.026.478.047.72.066 3.68-1.43 6.791-3.77 8.948-6.728 2.156-2.958 3.261-6.403 3.177-9.904l-4.054-3.522c.824 3.727.438 7.58-1.114 11.128-1.553 3.548-4.21 6.65-7.677 8.96Z" />
  <path d="m45.284 40.092.109.02c3.704-2.303 6.527-5.517 8.106-9.228 1.579-3.711 1.84-7.749.75-11.59l-5.775-5.017c2.335 4.124 3.276 8.74 2.71 13.31-.564 4.57-2.61 8.906-5.9 12.505ZM64.868 27.826c-.981 3.847-3.364 7.316-6.794 9.893a21.633 21.633 0 0 1-3.228 2.013c2.793-.713 5.36-1.974 7.504-3.686 2.144-1.712 3.807-3.829 4.86-6.187l-2.342-2.033Z" />
  <path d="m63.949 27.26-3.334-2.897c-.064 3.303-1.145 6.531-3.13 9.348-1.986 2.818-4.804 5.122-8.16 6.673h.016c.748 0 1.495-.04 2.238-.116 3.137-1.113 5.909-2.883 8.067-5.153 2.159-2.27 3.637-4.968 4.303-7.855ZM45.766 12.16 41.788 8.7c-3.556 1.194-6.614 3.293-8.775 6.022-2.16 2.73-3.322 5.961-3.333 9.274.013 3.66 1.431 7.212 4.03 10.093 2.597 2.88 6.227 4.927 10.314 5.814 3.648-3.862 5.785-8.634 6.098-13.623.313-4.99-1.213-9.935-4.356-14.12ZM73.14 26.727c-.014-4.342-2.006-8.503-5.54-11.574-3.534-3.07-8.324-4.801-13.322-4.814a21.18 21.18 0 0 0-6.753 1.092L71.88 32.593a14.352 14.352 0 0 0 1.26-5.866Z" />
    </symbol>
    <symbol id="icon-envelope" viewBox="0 0 43 32">
      <path d="M38.667 0H4C1.795 0 0 1.795 0 4v24c0 2.205 1.795 4 4 4h34.667c2.205 0 4-1.795 4-4V4c0-2.205-1.795-4-4-4zm0 2.667c.181 0 .355.037.512.104L21.334 18.238 3.489 2.771c.151-.065.327-.104.512-.104h34.667zm0 26.666H4A1.333 1.333 0 0 1 2.667 28V5.587l17.792 15.421c.233.203.539.327.875.327s.642-.124.876-.328l-.002.001L40 5.587V28c0 .736-.597 1.333-1.333 1.333z"/>
    </symbol>
    <symbol id="icon-fosters-peters" viewBox="0 0 106 60">
       <path d="M24.146 21.103h-.003c-2.398 0-4.342 1.727-4.342 3.858v.003c0 2.131 1.944 3.859 4.342 3.859h.003c2.398 0 4.342-1.728 4.342-3.859v-.002c0-2.132-1.944-3.86-4.342-3.86ZM56.195 19.87c-.007-2.96-1.333-5.798-3.688-7.891C50.153 9.886 46.96 8.707 43.63 8.7c-3.332.005-6.526 1.184-8.882 3.277-2.356 2.094-3.682 4.931-3.69 7.892v16.323s25.134-2.488 25.137-16.32v-.003ZM11 41.55c.006 2.06.93 4.033 2.568 5.49 1.638 1.456 3.859 2.277 6.176 2.283 2.317-.006 4.537-.827 6.176-2.283 1.638-1.456 2.562-3.429 2.568-5.488V30.194S11 31.927 11 41.55Zm8.744 2.034c-.453 0-.895-.119-1.272-.343a2.107 2.107 0 0 1-.843-.913 1.825 1.825 0 0 1-.13-1.175c.088-.395.306-.758.626-1.042.32-.285.728-.479 1.172-.557a2.558 2.558 0 0 1 1.323.115c.419.154.776.415 1.028.75s.386.728.386 1.13c.001.268-.057.534-.172.782a2.036 2.036 0 0 1-.496.662c-.212.19-.465.34-.744.443a2.539 2.539 0 0 1-.878.156v-.008ZM37.418 42.464H35.73v1.743h-.879V39.94h2.778v.712H35.73v1.102h1.688v.709Zm4.224-.293c0 .42-.074.788-.222 1.104-.149.317-.362.56-.639.733a1.755 1.755 0 0 1-.95.258c-.353 0-.668-.085-.946-.255a1.695 1.695 0 0 1-.644-.727 2.511 2.511 0 0 1-.231-1.09v-.21c0-.42.075-.79.225-1.108.153-.32.366-.566.642-.735.277-.172.593-.258.949-.258.355 0 .67.086.946.258.278.17.491.415.642.735.152.318.228.686.228 1.104v.19Zm-.89-.194c0-.447-.08-.787-.24-1.02a.783.783 0 0 0-.686-.348.782.782 0 0 0-.683.346c-.16.229-.24.564-.243 1.008v.208c0 .435.08.773.24 1.013.16.24.391.36.692.36a.775.775 0 0 0 .68-.345c.158-.232.238-.57.24-1.014v-.208Zm3.74 1.11a.447.447 0 0 0-.175-.38c-.117-.09-.328-.184-.633-.281a4.57 4.57 0 0 1-.723-.293c-.485-.262-.727-.615-.727-1.058 0-.23.065-.436.194-.615.13-.182.317-.323.56-.425.243-.101.517-.152.82-.152.304 0 .575.055.814.167.238.11.423.264.553.466.133.2.2.43.2.685h-.88c0-.195-.06-.347-.184-.454-.123-.11-.296-.164-.518-.164-.215 0-.382.046-.501.138a.426.426 0 0 0-.179.357c0 .139.07.255.208.349.14.093.347.181.618.263.5.15.864.337 1.093.56.229.222.343.5.343.832 0 .369-.14.66-.42.87-.279.209-.654.314-1.127.314-.328 0-.627-.06-.897-.18a1.439 1.439 0 0 1-.618-.494 1.27 1.27 0 0 1-.21-.727h.881c0 .47.281.706.844.706.209 0 .372-.042.49-.126a.418.418 0 0 0 .175-.357Zm4.691-2.434h-1.306v3.554h-.88v-3.554H45.71v-.712h3.474v.712Zm3.07 1.705h-1.687v1.143h1.98v.706h-2.859V39.94h2.854v.712h-1.975v1.017h1.688v.688Zm2.388.287h-.7v1.562h-.879V39.94h1.585c.504 0 .893.113 1.166.337.274.225.41.542.41.952 0 .291-.063.535-.19.73a1.283 1.283 0 0 1-.571.463l.922 1.743v.04h-.943l-.8-1.56Zm-.7-.712h.71c.22 0 .39-.055.512-.166a.607.607 0 0 0 .181-.466c0-.202-.057-.36-.172-.475-.114-.115-.288-.173-.525-.173h-.706v1.28Zm5.326.771v1.503h-.879V39.94h1.665c.32 0 .601.059.843.176.244.117.432.284.563.501.13.215.196.46.196.735 0 .418-.144.748-.43.99-.286.24-.681.361-1.187.361h-.77Zm0-.712h.785c.233 0 .41-.055.53-.164.124-.11.185-.266.185-.469a.704.704 0 0 0-.184-.507c-.123-.128-.293-.195-.51-.199h-.806v1.34Zm5.56.366H63.14v1.143h1.98v.706h-2.859V39.94h2.854v.712H63.14v1.017h1.688v.688Zm4.079-1.705h-1.307v3.554h-.879v-3.554h-1.289v-.712h3.475v.712Zm3.07 1.705H70.29v1.143h1.98v.706h-2.86V39.94h2.854v.712H70.29v1.017h1.687v.688Zm2.388.287h-.7v1.562h-.88V39.94h1.586c.504 0 .892.113 1.166.337.273.225.41.542.41.952 0 .291-.063.535-.19.73a1.282 1.282 0 0 1-.572.463l.923 1.743v.04h-.943l-.8-1.56Zm-.7-.712h.709c.22 0 .391-.055.512-.166a.607.607 0 0 0 .182-.466c0-.202-.057-.36-.173-.475-.113-.115-.288-.173-.524-.173h-.706v1.28Zm5.165 1.155a.447.447 0 0 0-.176-.381c-.117-.09-.328-.184-.633-.281a4.575 4.575 0 0 1-.723-.293c-.485-.262-.727-.615-.727-1.058 0-.23.065-.436.193-.615.131-.182.318-.323.56-.425.244-.101.518-.152.82-.152.305 0 .576.055.815.167.238.11.423.264.553.466.133.2.2.43.2.685h-.88c0-.195-.06-.347-.184-.454-.123-.11-.296-.164-.518-.164-.215 0-.382.046-.501.138a.426.426 0 0 0-.179.357c0 .139.07.255.208.349.14.093.347.181.618.263.5.15.864.337 1.093.56.228.222.343.5.343.832 0 .369-.14.66-.42.87-.278.209-.654.314-1.127.314-.328 0-.627-.06-.897-.18a1.438 1.438 0 0 1-.618-.494 1.27 1.27 0 0 1-.21-.727h.881c0 .47.281.706.844.706.209 0 .372-.042.49-.126a.418.418 0 0 0 .175-.357Z"/>
    </symbol>
    <symbol id="icon-smartphone" viewBox="0 0 20 32">
      <path d="M17 0H3C1.346 0 0 1.346 0 3v26c0 1.654 1.346 3 3 3h14c1.654 0 3-1.346 3-3V3c0-1.654-1.346-3-3-3zM3 2h14a1 1 0 0 1 1 1v21H2V3a1 1 0 0 1 1-1zm14 28H3a1 1 0 0 1-1-1v-3h16v3a1 1 0 0 1-1 1z"/>
      <path d="M4.708 27.478a.889.889 0 0 1 .001 1.319l-.001.001a1.048 1.048 0 0 1-1.417 0l.001.001a.889.889 0 0 1-.001-1.319l.001-.001a1.048 1.048 0 0 1 1.417 0l-.001-.001z"/>
    </symbol>
    <symbol id="icon-teg-line-company" viewBox="0 0 106 60">
      <path d="M53.425 27.408a2.947 2.947 0 0 1-.605-1.988v-2.884c0-.883.2-1.555.602-2.015.4-.46 1.089-.688 2.065-.686.917 0 1.569.196 1.953.587.42.499.625 1.109.578 1.724v.678h-1.64v-.687c.005-.224-.01-.449-.048-.671a.65.65 0 0 0-.235-.399.95.95 0 0 0-.594-.155 1.005 1.005 0 0 0-.625.164.768.768 0 0 0-.272.44 3.332 3.332 0 0 0-.065.713v3.499c-.026.337.047.675.21.982a.77.77 0 0 0 .328.238.9.9 0 0 0 .424.055.893.893 0 0 0 .58-.158.704.704 0 0 0 .245-.425c.038-.232.056-.467.051-.701v-.71h1.641v.648a2.64 2.64 0 0 1-.567 1.813c-.377.428-1.02.642-1.964.642s-1.658-.229-2.062-.704ZM60.257 27.438c-.414-.45-.622-1.103-.622-1.968v-3.033c0-.857.208-1.505.622-1.945.414-.44 1.107-.659 2.079-.657.965 0 1.654.22 2.069.657.414.44.625 1.088.625 1.945v3.032c0 .857-.21 1.514-.632 1.966-.421.451-1.107.677-2.062.677-.955 0-1.661-.229-2.08-.674Zm2.843-.728c.149-.28.216-.589.197-.897v-3.714a1.649 1.649 0 0 0-.193-.88.776.776 0 0 0-.335-.241.906.906 0 0 0-.433-.052.918.918 0 0 0-.434.052.787.787 0 0 0-.337.241c-.15.275-.217.578-.197.88v3.731c-.02.309.047.617.197.898.096.094.214.17.346.222a1.16 1.16 0 0 0 .843 0c.133-.052.25-.128.346-.222v-.018ZM67.004 19.924h1.766l1.328 5.595 1.36-5.595h1.718L73.35 28h-1.271l-.136-5.613L70.632 28h-1.02l-1.358-5.634L68.128 28h-1.284l.16-8.076ZM75.33 19.924h2.752c1.585 0 2.378.764 2.378 2.293 0 1.464-.835 2.196-2.504 2.194h-.937V28H75.32l.01-8.077Zm2.351 3.451c.168.019.338.006.5-.039.161-.044.31-.117.434-.216.195-.273.281-.593.245-.912a2.529 2.529 0 0 0-.082-.733.593.593 0 0 0-.125-.222.703.703 0 0 0-.214-.162 1.76 1.76 0 0 0-.758-.13h-.659v2.414h.66ZM82.91 19.924h1.824L86.606 28h-1.584l-.37-1.862h-1.627L82.645 28h-1.607l1.871-8.076Zm1.559 5.279-.635-3.39-.636 3.39h1.27ZM88.117 19.924h1.19l2.275 4.607v-4.607h1.41V28h-1.131l-2.29-4.81V28h-1.457l.003-8.076ZM96.294 24.92l-1.892-4.985h1.594l1.155 3.203 1.083-3.203h1.56l-1.869 4.986V28h-1.63v-3.08ZM56.048 31.532v.422h-1.386v3.282h-.581v-3.282h-1.393v-.422h3.36ZM60.393 35.236h-.449a.2.2 0 0 1-.126-.035.194.194 0 0 1-.074-.085l-.401-.88H57.42l-.4.88a.243.243 0 0 1-.062.1.208.208 0 0 1-.126.035h-.448l1.699-3.704h.59l1.72 3.69Zm-2.813-1.375h1.603l-.68-1.508a2.699 2.699 0 0 1-.125-.349c-.024.07-.044.138-.064.197l-.062.155-.672 1.505ZM63.321 34.872c.107.005.213.005.32 0 .091-.008.182-.023.271-.044a2.11 2.11 0 0 0 .245-.067c.075-.027.15-.059.228-.091v-.833h-.68a.137.137 0 0 1-.092-.03.086.086 0 0 1-.026-.03.074.074 0 0 1-.008-.037v-.284h1.318v1.42a2.573 2.573 0 0 1-.716.301c-.14.036-.281.061-.425.077a5.13 5.13 0 0 1-.496.023 2.59 2.59 0 0 1-.856-.138 2.09 2.09 0 0 1-.68-.387 1.79 1.79 0 0 1-.438-.587 1.851 1.851 0 0 1-.156-.768 1.921 1.921 0 0 1 .153-.774 1.7 1.7 0 0 1 .438-.587c.194-.167.425-.297.68-.384.29-.095.6-.142.91-.138.158 0 .316.01.472.032.138.02.274.051.404.094.12.038.233.088.34.147.104.058.203.122.296.193l-.163.229a.142.142 0 0 1-.055.05.17.17 0 0 1-.078.02.222.222 0 0 1-.105-.029 2.096 2.096 0 0 1-.167-.088 1.504 1.504 0 0 0-.227-.1 2.128 2.128 0 0 0-.313-.082 2.613 2.613 0 0 0-.431-.032 2.01 2.01 0 0 0-.656.103 1.44 1.44 0 0 0-.5.293 1.29 1.29 0 0 0-.315.46 1.731 1.731 0 0 0 0 1.235c.074.175.19.333.34.467.139.127.308.227.495.293.216.064.445.089.673.073ZM68.736 34.814h1.855v.422H68.17v-3.704h.58l-.013 3.282ZM72.52 35.236h-.58v-3.704h.58v3.704ZM74.681 31.55a.28.28 0 0 1 .089.067l2.483 2.792a.881.881 0 0 1 0-.132V31.517h.506v3.72h-.292a.275.275 0 0 1-.126-.021.328.328 0 0 1-.091-.07l-2.48-2.79v2.88h-.486v-3.704h.302c.033 0 .066.006.095.017ZM82.036 31.532v.407h-2.058v1.223h1.668v.393h-1.668v1.264h2.058v.408H79.38v-3.695h2.656ZM21.162 8.656l25.795 6.323v22.158l-25.795-6.32V8.655Zm-1.655-1.89v25.127l29.1 7.136V13.905l-29.1-7.138Z" />
  <path d="M35.104 50.692 6 43.55V18.427l29.104 7.139v25.126Z" />
  <path d="m19.99 8.371 25.458 6.244-10.827 9.35L9.16 17.718 19.99 8.37Zm-.483-1.604L6 18.427l29.104 7.14 13.504-11.662-29.1-7.138ZM36.742 49.279 48.608 39.03 36.742 36.12v13.16Z" />
    </symbol>
    <symbol id="icon-teg-line-here" viewBox="0 0 106 60">
       <path fill-rule="evenodd" clip-rule="evenodd" d="M50.114 5.935h-.137c-.21-.013-.42-.018-.63-.023h-.455c-.398 0-.802.01-1.205.03a.627.627 0 0 0-.09 0A28.275 28.275 0 0 0 37.08 8.625l-.432.208v22.142l1.012-.344c.888-.305 1.834-.58 2.813-.834a34.329 34.329 0 0 1 8.095-1.075v2.909a23.25 23.25 0 0 0-1.065.03h-.084a32.36 32.36 0 0 0-6.228.956 31.633 31.633 0 0 0-7.42 2.892V7.112a29.728 29.728 0 0 1 7.784-3.166A29.794 29.794 0 0 1 48.892 3h.427c.511.013 1.01.036 1.477.071a21.11 21.11 0 0 1 3.656.583v2.863a22.624 22.624 0 0 0-3.542-.534l-.072-.006c-.247-.021-.494-.042-.724-.042Zm5.039 2.926c.635.049 1.292.072 1.958.072a31.467 31.467 0 0 0 7.713-.99A31.774 31.774 0 0 0 72.24 5.05v27.89a29.814 29.814 0 0 1-7.787 3.166 29.943 29.943 0 0 1-7.336.944 22.405 22.405 0 0 1-5.565-.656V8.322c.43.1.873.191 1.323.267a24.84 24.84 0 0 0 2.277.272Zm14.194.217-1.012.34a44.2 44.2 0 0 1-2.813.842 34.263 34.263 0 0 1-8.406 1.078c-.66 0-1.268-.018-1.855-.056l-.806-.053v22.777l.693.06c.642.057 1.305.085 1.973.085a26.884 26.884 0 0 0 6.62-.857 27.764 27.764 0 0 0 5.173-1.86l.433-.208V9.078Z" />
  <path d="M35.737 45.212a1.492 1.492 0 0 0-1.126-.455 1.672 1.672 0 0 0-.65.122 1.464 1.464 0 0 0-.832.842c-.08.2-.119.413-.116.628v3.794c-.01.267.042.533.149.778.09.195.219.368.38.509.151.127.33.22.52.27.185.051.376.078.567.078.212.002.42-.043.612-.132a1.599 1.599 0 0 0 .96-1.465v-.424h-.992v.338a.881.881 0 0 1-.059.338.609.609 0 0 1-.144.214.697.697 0 0 1-.415.145.503.503 0 0 1-.465-.204.898.898 0 0 1-.132-.508v-3.538c-.006-.196.036-.39.122-.567a.507.507 0 0 1 .485-.229.527.527 0 0 1 .443.214.806.806 0 0 1 .165.509v.328h.981v-.387a1.786 1.786 0 0 0-.121-.664 1.562 1.562 0 0 0-.332-.534Zm5.892-.042a1.765 1.765 0 0 0-1.128-.418c-.202 0-.403.037-.592.107A1.56 1.56 0 0 0 39 45.7c-.1.231-.15.482-.145.735v3.638c-.007.256.043.51.145.745.09.196.22.37.384.509.152.14.33.25.524.32.19.07.39.106.592.107a1.714 1.714 0 0 0 1.128-.427c.158-.142.285-.315.374-.509.102-.234.151-.489.145-.745v-3.639a1.77 1.77 0 0 0-.145-.734 1.641 1.641 0 0 0-.374-.532Zm-.463 4.904a.656.656 0 0 1-.197.527.727.727 0 0 1-.934 0 .65.65 0 0 1-.197-.527v-3.639a.653.653 0 0 1 .197-.526.726.726 0 0 1 .934 0 .652.652 0 0 1 .197.526v3.64Zm8.201 1.626v-6.89h-.953l-1.253 3.647h-.017l-1.263-3.646h-.943v6.888h.984v-4.19h.018l.963 2.962h.491l.971-2.962h.018v4.19h.984Zm5.591-6.406c-.151-.17-.343-.3-.556-.377a2.184 2.184 0 0 0-.714-.107h-1.462v6.89h.982v-2.691h.506c.306.014.61-.051.885-.188a1.43 1.43 0 0 0 .539-.527c.113-.183.19-.387.225-.6a4.9 4.9 0 0 0 .053-.783c.01-.33-.023-.662-.096-.984a1.465 1.465 0 0 0-.362-.633Zm-.506 2.1a.868.868 0 0 1-.09.359.552.552 0 0 1-.254.241 1.006 1.006 0 0 1-.463.087h-.448v-2.342h.506a.942.942 0 0 1 .443.086.556.556 0 0 1 .23.254 1 1 0 0 1 .086.384v.458c0 .16.01.326 0 .473h-.01Zm5.156-2.584h-.805l-1.518 6.89h.982l.288-1.48h1.339l.288 1.48h.981l-1.555-6.89Zm-.906 4.471.483-2.497h.018l.48 2.497h-.981Zm7.248-.321h-.018l-1.482-4.15h-.944v6.89h.981v-4.143h.02l1.5 4.142h.924v-6.888h-.981v4.15Zm5.998-4.15-.79 2.74h-.02l-.79-2.74H69.31l1.348 3.978v2.911h.982v-2.911l1.348-3.977h-1.04ZM33 53.645h.473v1.327h.321v-1.328h.47v-.272H33v.273Zm3.977-.273-.62 1.6h.341l.132-.364h.638l.136.364h.35l-.636-1.6h-.341Zm-.05.967.217-.593.217.593h-.435Zm3.981.043h.37v.206a.613.613 0 0 1-.38.135.404.404 0 0 1-.34-.153.67.67 0 0 1-.118-.417c0-.356.154-.534.46-.534a.337.337 0 0 1 .362.255l.316-.062c-.068-.312-.293-.47-.678-.47a.804.804 0 0 0-.559.206.78.78 0 0 0-.23.615.872.872 0 0 0 .205.6.776.776 0 0 0 .607.235.96.96 0 0 0 .678-.255v-.63h-.693v.27Zm4.014-1.01H44.6v1.6h1.12V54.7h-.797v-1.328Zm3.396 0h-.324v1.6h.324v-1.6Zm3.318 1.068-.655-1.068h-.314v1.6h.301v-1.045l.643 1.045h.321v-1.6h-.296v1.069Zm3.001-.173h.797v-.272h-.797v-.35h.857v-.273h-1.181v1.6h1.214V54.7h-.89v-.433Zm7.275-.264h-.63v-.63h-.32v1.599h.32v-.7h.63v.7h.322v-1.6h-.322v.631Zm3.018.264h.8v-.272h-.8v-.35h.86v-.273h-1.18v1.6h1.212V54.7h-.89v-.433Zm4.093.001c.279-.044.42-.191.42-.445a.383.383 0 0 0-.157-.356.904.904 0 0 0-.468-.094h-.678v1.599h.322v-.669h.063a.431.431 0 0 1 .2.036.336.336 0 0 1 .114.117l.349.508h.384l-.195-.312a1.115 1.115 0 0 0-.354-.384Zm-.324-.222h-.237v-.401h.253a.84.84 0 0 1 .326.038.21.21 0 0 1-.015.325.913.913 0 0 1-.327.038Zm3.411.221h.796v-.272h-.796v-.35h.86v-.273h-1.184v1.6H73V54.7h-.89v-.433Z" />
    </symbol>
    <symbol id="icon-yaco" viewBox="0 0 106 60">
      <path fill-rule="evenodd" clip-rule="evenodd" d="m38 7 7.008 6.634L32 13.626v32.188h34V33.507l7 6.627V7H38Zm27.692 25.728-19.87-18.81h19.87v18.81Zm-6.169 8.377H37.38V19.459h1.565V39.64h20.578v1.465ZM42.61 50.1l-.818 1.685-.818-1.685h-.686l1.194 2.246v1.309h.62v-1.309l1.191-2.246h-.683Zm1.028 3.555.288-.828h1.377l.29.828h.645L44.893 50.1h-.555l-1.342 3.555h.642Zm.976-2.8.515 1.474h-1.03l.515-1.475Zm3.257 1.389a.807.807 0 0 0-.134.451c0 .3.105.543.315.73.211.186.493.279.844.279.352 0 .655-.096.909-.286l.2.237h.688l-.522-.618c.205-.28.307-.639.307-1.077h-.515c0 .24-.05.457-.149.652l-.686-.81.242-.176a1.34 1.34 0 0 0 .369-.371.785.785 0 0 0 .112-.41.732.732 0 0 0-.249-.564.895.895 0 0 0-.635-.23c-.286 0-.514.082-.683.244-.17.162-.254.381-.254.66 0 .114.027.231.08.354.056.122.153.27.29.444-.263.189-.44.352-.529.49Zm1.604.786a.905.905 0 0 1-.561.2.585.585 0 0 1-.425-.154.533.533 0 0 1-.159-.4c0-.19.098-.36.293-.508l.076-.054.776.916Zm-.637-1.575c-.168-.207-.252-.378-.252-.515 0-.119.035-.217.103-.295a.348.348 0 0 1 .276-.118.37.37 0 0 1 .266.1c.07.066.105.145.105.237a.44.44 0 0 1-.151.345l-.076.06-.271.186Zm5.786 1.931c.244-.213.384-.51.42-.888h-.615c-.033.254-.11.435-.232.544-.122.11-.305.164-.547.164-.265 0-.467-.101-.605-.303-.137-.202-.206-.495-.206-.88v-.314c.004-.38.077-.666.22-.862.145-.197.352-.295.62-.295.231 0 .406.057.525.17.12.113.195.297.225.552h.615c-.04-.389-.178-.69-.417-.903-.24-.213-.555-.32-.948-.32-.291 0-.548.07-.771.208a1.346 1.346 0 0 0-.51.59 2.082 2.082 0 0 0-.179.887v.332c.005.327.066.614.183.862.118.247.284.438.498.573.217.134.467.2.75.2.405 0 .73-.105.974-.317Zm3.63-.498c.12-.264.181-.57.181-.918v-.197a2.149 2.149 0 0 0-.185-.911 1.356 1.356 0 0 0-.52-.6 1.42 1.42 0 0 0-.77-.21c-.29 0-.546.07-.771.212-.223.14-.396.342-.52.608a2.174 2.174 0 0 0-.183.918v.2c.002.34.063.64.185.9.124.261.298.462.523.604.226.14.483.21.771.21.292 0 .549-.07.772-.21.224-.142.397-.344.517-.606Zm-.661-2.01c.15.21.224.513.224.907v.185c0 .4-.074.705-.222.913-.146.209-.356.313-.63.313a.738.738 0 0 1-.634-.32c-.152-.213-.227-.515-.227-.906v-.205c.003-.382.08-.678.229-.886a.731.731 0 0 1 .627-.315c.274 0 .485.105.633.315Z"/>
    </symbol>
   <symbol id="icon-close" viewBox="0 0 11 11"  xmlns="http://www.w3.org/2000/svg">
 <path d="M11 1.108 9.892 0 5.5 4.392 1.108 0 0 1.108 4.392 5.5 0 9.892 1.108 11 5.5 6.608 9.892 11 11 9.892 6.608 5.5 11 1.108Z" />
  </symbol> 
  <symbol id="icon-avatar" viewBox="0 0 12 12"  xmlns="http://www.w3.org/2000/svg">
  <path d="M6 6a3 3 0 1 0 0-6 3 3 0 1 0 0 6Zm0 1.5c-2.002 0-6 1.005-6 3v.75c0 .412.338.75.75.75h10.5c.412 0 .75-.338.75-.75v-.75c0-1.995-3.998-3-6-3Z" />
</symbol>
<symbol id="icon-phone" viewBox="0 0 14 14"  xmlns="http://www.w3.org/2000/svg">
  <path d="m11.996 9.123-1.838-.21a1.44 1.44 0 0 0-1.187.412l-1.332 1.332a10.888 10.888 0 0 1-4.769-4.77L4.21 4.55a1.44 1.44 0 0 0 .412-1.187l-.21-1.824a1.448 1.448 0 0 0-1.44-1.28H1.72C.902.257.222.937.272 1.754c.384 6.18 5.327 11.116 11.5 11.5.817.05 1.498-.63 1.498-1.448v-1.252a1.434 1.434 0 0 0-1.274-1.432Z" />
</symbol>
<symbol id="icon-email" viewBox="0 0 16 12"  xmlns="http://www.w3.org/2000/svg">
  <path d="M14 0H2C1.175 0 .507.675.507 1.5l-.007 9c0 .825.675 1.5 1.5 1.5h12c.825 0 1.5-.675 1.5-1.5v-9C15.5.675 14.825 0 14 0Zm-.3 3.188L8.398 6.502a.759.759 0 0 1-.795 0L2.3 3.187a.637.637 0 1 1 .675-1.08L8 5.25l5.025-3.143a.637.637 0 1 1 .675 1.08Z" />
</symbol>
<symbol id="icon-check" viewBox="0 0 13 10" fill="none" xmlns="http://www.w3.org/2000/svg">
  <path d="m1.957 4.752-.069-.066-.069.065-.888.842-.076.072.076.073 3.496 3.334.069.066.069-.066 7.504-7.158.076-.073-.076-.072-.882-.841-.069-.066-.069.066-6.553 6.246-2.539-2.422Z" fill="#fff" stroke="#fff" stroke-width=".2"/>
</symbol>
<symbol id="icon-send"
 viewBox="0 0 24 24"  xmlns="http://www.w3.org/2000/svg">
  <path d="M24 0 0 13.5l7.67 2.84L19.5 5.25l-8.998 12.14.007.002-.009-.002V24l4.301-5.018L20.251 21 24 0Z" />
</symbol>
  </defs>
</svg>


